/* XPM */
static char *e1b18a7eb9b2437df9fd895bc36a2504fyMF1OglBDYzE73V[] = {
/* columns rows colors chars-per-pixel */
"32 32 24 1 ",
"  c None",
". c #101010",
"X c #300C00",
"o c #3F3B00",
"O c #202020",
"+ c #2F2F2F",
"@ c #401000",
"# c #601800",
"$ c #5E5800",
"% c #5F5900",
"& c #7F7700",
"* c #464646",
"= c gray37",
"- c #802000",
"; c #A02800",
": c red",
"> c #9E9400",
", c #BFB300",
"< c #CEC100",
"1 c #DFD100",
"2 c #FEEE00",
"3 c #8D8D8D",
"4 c gray65",
"5 c gray74",
/* pixels */
" <1222   1  1     1  1o  <1222  ",
"$::1::1  1  1  1  1 o1$ $::1::1 ",
">::O::<o,>o,>o,>o,>o,>$o>::O::< ",
"><<11<<$<<$<<$<<$<<$<<$o><<11<< ",
">$$$$,&&11&11&11&11&11&o>$$$$,& ",
" $<<<$>&<,&<,&<,&<,&<,&$&$<<<$  ",
" oo$$&XXX1XX1X@1#@1XX1XXXXo$$o  ",
"  <1<,XXX1XX1X@1-#1X@1XXXX<1<,  ",
"11,1<>11X@XX#@@.-#@X#XXX11,1<>11",
"  &&$oXXX@@X#@#.-##X#@X@XX&&$o  ",
"  <1<,@@X#@X-@#.;##@##@@#X<1<,  ",
" 1,1<>11X#@@-@#.;#-@-#@##1,1<>11",
"  &&$o##@-#@-#-.;#-@-#@-#X&&$o  ",
"  <1<,-#@-#@-#-.;#-@-##--@<1<,  ",
"11,1<>1-@--#-#-.;#-#--#-11,1<>1 ",
"  &&$o--#--#-#-.;--#--#---&&$o  ",
"  <1<,555544433+5345554443<1<,  ",
"11,1<>11====***+3**=====11,1<>11",
"  &&$oX@XX@XXXX.-@@XX@XX@X&&$o  ",
"  <1<,X#XX@#X@X.-##X@#X@@X<1<,  ",
" 1,1<>11X@##@#@.;-#@@#X@#1,1<>11",
"  &&$o@#@@#-@##.;-#@#-@##@&&$o  ",
"  <1<,#-@#--@#-.;-##--##-#<1<,  ",
"11,1<>1-##--#--.--------11,1<>1 ",
"  &&$o555444433+5345554444&&$o  ",
"  <1<,*=====***+3**===****<1<,  ",
"11,1<>11XXXXXXX.-@XXX@@@11,1<>11",
"  &&$o--#------.;---------&&$o  ",
"  <1<,#-@--##-#.;#-#-#-#-#<1<,  ",
"11,1<>11@-#@#-@.;####@##11,1<>11",
"  &&$o@#@#@X@#@.-@#@#X@@#X&&$o  ",
"  $$ooX@XX@X@@X.-X@X@X@X@X$$o$  "
};
