/* XPM */
static char *f5731fcbf809435b94726a14efbc4feaoQpb9hqeBC2ju1dO[] = {
/* columns rows colors chars-per-pixel */
"32 32 17 1 ",
"  c None",
". c black",
"X c #2F0000",
"o c #3F3B00",
"O c #202020",
"+ c #4E0000",
"@ c #6F0000",
"# c #5E5800",
"$ c #5F5900",
"% c #7F7700",
"& c #8E0000",
"* c red",
"= c #9E9400",
"- c #BFB300",
"; c #CEC100",
": c #DFD100",
"> c #FEEE00",
/* pixels */
" ;:>>>   :  :     :  :o  ;:>>>  ",
"#**:**:  :  :  :  : o:# #**:**: ",
"=**O**;o-=o-=o-=o-=o-=#o=**O**; ",
"=;;::;;#;;#;;#;;#;;#;;#o=;;::;; ",
"=####-%%::%::%::%::%::%o=####-% ",
" #;;;#=%;-%;-%;-%;-%;-%#%#;;;#  ",
" oo##%   :  :  :  :  :    o##o  ",
"  ;:;-   :  :  :  :  :    ;:;-  ",
"::-:;=::                ::-:;=::",
"  %%#o                    %%#o  ",
"  ;:;-                    ;:;-  ",
" :-:;=::                 :-:;=::",
"  %%#o                    %%#o  ",
"  ;:;-                    ;:;-  ",
"::-:;=:                 ::-:;=: ",
"  %%#o                    %%#o  ",
"  ;:;-                    ;:;-  ",
"::-:;=::              . ::-:;=::",
"  %%#o...........  .......%%#o  ",
"  ;:;-.....X..............;:;-  ",
" :-:;=::.+XX+X++++X+++++X:-:;=::",
"  %%#o@+..XX+++++XX++X++XX%%#o  ",
"  ;:;-@++......++++++++X++;:;-  ",
"::-:;=:++@@@.....++++++X::-:;=: ",
"  %%#o@++&@@@@++...XXX+XXX%%#o  ",
"  ;:;-@++&&@@+++.........+;:;-  ",
"::-:;=::+&@@@+++@@@@@+..::-:;=::",
"  %%#o@@+&@@@@++@@@@+++...%%#o  ",
"  ;:;-@++&&@@+++&@@@++++@@;:;-  ",
"::-:;=::+@&@@@++@@@@@++@::-:;=::",
"  %%#o..................OO%%#o  ",
"  ##oo   ... .  ..  ....  ##o#  "
};
