/* XPM */
static char *_c4f2c47d2b54b67bd4a80d10d69baacJ4tmLnpb182Qmbww[] = {
/* columns rows colors chars-per-pixel */
"32 32 17 1 ",
"  c None",
". c black",
"X c #130B04",
"o c #1A0D00",
"O c #231200",
"+ c #2C1600",
"@ c #3F1F00",
"# c #482400",
"$ c #502800",
"% c #6C3700",
"& c #633C15",
"* c #7F5A48",
"= c #814F1C",
"- c #A5765E",
"; c #CA8F72",
": c #FFB691",
"> c #FFD3AF",
/* pixels */
"                                ",
"                                ",
"               ..               ",
"              .>>.              ",
"             .>:::.             ",
"             .:**;.             ",
"             .>>;:.             ",
"             .;:;;.             ",
"            .**::**.            ",
"           .:::;;::;.           ",
"          .::;;::;;:;.          ",
"         .:::>>::>>::;.         ",
"         .::;:::::;;:;.         ",
"        .::;.;;;-;-.::;.        ",
"        .:;..:;::;;..:;.        ",
"      ..::;..:;;-;;..::;..      ",
"     .:;:;. .;;::--. .:;:;.     ",
"     .:-;;. .#$&&$+OOo;;:;.     ",
"     .:-....$&$&$&$++O..:;.     ",
"      .. .#$&$&$&$$@#@+O..O..   ",
"         .&#$$$&$&$#@#@+OO.O+.  ",
"        .$&$##$$&$#$#@@@++..O+. ",
"        .&#oXo#$#&$#@++@@+O..+. ",
"        .&$o.oo++#$@+oo+@@+..+. ",
"        .&&+...XXo$#oXXXo@+..O. ",
"         .&#X...Xo#$#.XXo@o..O. ",
"         .$$o.. .X+$@.XXX@o. .  ",
"          .&@.  .Xo$+.XX+O.     ",
"         ..&#.  .o#$.X.++.      ",
"        ..%$@. ..%$@.X.@O....   ",
"        ..=%.....=%@.X.@@...... ",
"         ...........XX........  "
};
